<?xml version="1.0" encoding="UTF-8"?>
<svg version="1.1" xmlns="http://www.w3.org/2000/svg" width="1024" height="1024" viewBox="180 250 680 480">
<path d="M0 0 C1.62215675 -0.00639748 1.62215675 -0.00639748 3.27708435 -0.01292419 C5.07353645 -0.01224442 5.07353645 -0.01224442 6.90628052 -0.0115509 C8.16028152 -0.01490952 9.41428253 -0.01826813 10.70628357 -0.02172852 C14.16454336 -0.03060324 17.62277842 -0.0329087 21.08104849 -0.0335443 C23.25269546 -0.03425542 25.42433618 -0.0363914 27.5959816 -0.03904152 C35.20674282 -0.04832197 42.81748649 -0.05237499 50.42825317 -0.05158997 C57.4583663 -0.0509956 64.48840108 -0.06141244 71.51849449 -0.07733363 C77.58937838 -0.09057852 83.66023733 -0.09576657 89.73113549 -0.09513456 C93.33979602 -0.0948835 96.94838771 -0.09750771 100.55703354 -0.10831261 C186.61969916 -0.34771829 186.61969916 -0.34771829 216.69973755 27.63371277 C217.46286255 28.45871277 218.22598755 29.28371277 219.01223755 30.13371277 C219.4814563 30.60937683 219.95067505 31.08504089 220.43411255 31.57511902 C233.41981801 45.46446894 235.92890829 64.04553322 235.3911438 82.23918152 C234.32178478 103.05983618 225.31087038 119.44926571 210.32473755 133.82121277 C180.19179974 159.93642554 136.83313765 160.22322841 99.25442505 160.15324402 C97.76801569 160.15167203 96.28160617 160.15024698 94.79519653 160.14897156 C91.20087341 160.14557416 87.60655657 160.14020605 84.01223755 160.13371277 C83.98896889 169.59213254 83.9712489 179.05054231 83.96042538 188.50898457 C83.95522813 192.90188935 83.94818848 197.29477441 83.9367981 201.68766785 C83.92585617 205.93464537 83.91993698 210.18160404 83.91736031 214.42859459 C83.91552629 216.04112736 83.91194533 217.65365921 83.90650749 219.26618385 C83.00848852 239.55900094 83.00848852 239.55900094 91.69973755 257.00871277 C99.21286392 261.82845421 106.33108464 262.52622514 115.16848755 262.92277527 C118.01223755 263.13371277 118.01223755 263.13371277 119.01223755 264.13371277 C119.08495496 266.48684831 119.09594623 268.84204945 119.07473755 271.19621277 C119.06571411 272.48656433 119.05669067 273.77691589 119.0473938 275.10636902 C119.03579224 276.10539246 119.02419067 277.10441589 119.01223755 278.13371277 C102.86191835 278.15704186 86.71160459 278.17469199 70.56127262 278.18552494 C63.0629069 278.19068788 55.56455164 278.19773053 48.06619263 278.20915222 C41.53293251 278.21909913 34.99967996 278.22556621 28.46641248 278.22780126 C25.00501948 278.22910836 21.54364813 278.23219413 18.08226204 278.23944283 C14.22436228 278.24745684 10.36648398 278.2477039 6.50857544 278.24723816 C4.77473099 278.25263107 4.77473099 278.25263107 3.00585938 278.25813293 C1.96112961 278.25675827 0.91639984 278.25538361 -0.1599884 278.25396729 C-1.53023367 278.25534997 -1.53023367 278.25534997 -2.92816067 278.2567606 C-4.98776245 278.13371277 -4.98776245 278.13371277 -5.98776245 277.13371277 C-6.08676445 275.1565847 -6.11747018 273.17581239 -6.11276245 271.19621277 C-6.11534058 270.11468933 -6.1179187 269.03316589 -6.12057495 267.91886902 C-5.98776245 265.13371277 -5.98776245 265.13371277 -4.98776245 263.13371277 C-1.73736465 262.65638162 1.48424804 262.34577091 4.7583313 262.09855652 C11.50911305 261.43475052 15.94926281 259.19668751 20.82473755 254.32121277 C24.97711667 248.27060319 25.30658807 242.22632948 25.27966309 235.13883972 C25.2841942 234.2557504 25.28872531 233.37266108 25.29339373 232.46281147 C25.30601277 229.51581851 25.30441899 226.56901094 25.30276489 223.62199402 C25.30875155 221.50426497 25.31555742 219.3865381 25.32312012 217.26881409 C25.34076973 211.52512842 25.34547497 205.78150237 25.34675169 200.03779221 C25.34817402 196.44879792 25.35244511 192.85981877 25.35774612 189.27082825 C25.37624044 176.74887633 25.38441717 164.22696696 25.38284302 151.70500183 C25.38164063 140.03345693 25.40276372 128.36209665 25.43433034 116.69059849 C25.46047488 106.66664288 25.47121113 96.64274765 25.4699322 86.6187582 C25.46942219 80.63316795 25.47512778 74.64774195 25.4962883 68.66218567 C25.51564073 63.0347286 25.5158155 57.40759302 25.50125504 51.78012466 C25.49916238 49.71575578 25.50389492 47.65136692 25.51597595 45.58703232 C25.5314091 42.76717171 25.52213305 39.94842244 25.50671387 37.12858582 C25.51700099 36.31330571 25.52728812 35.49802561 25.53788698 34.65804005 C25.46999603 29.03317632 24.22858141 25.7727423 21.01223755 21.13371277 C14.21213988 15.28246594 5.8119942 14.96591843 -2.80026245 14.37980652 C-4.98776245 14.13371277 -4.98776245 14.13371277 -5.98776245 13.13371277 C-6.08650061 11.13571705 -6.11748044 9.13414119 -6.11276245 7.13371277 C-6.11534058 6.04058777 -6.1179187 4.94746277 -6.12057495 3.82121277 C-5.89410978 -0.76137661 -4.11623099 0.0073012 0 0 Z M83.01223755 16.13371277 C83.01223755 58.04371277 83.01223755 99.95371277 83.01223755 143.13371277 C96.61579576 144.03553958 96.61579576 144.03553958 110.13723755 143.88371277 C111.07172729 143.83633972 112.00621704 143.78896667 112.96902466 143.74015808 C130.64145865 142.68454096 149.03549806 138.21897886 161.2973938 124.59465027 C174.90274595 106.94583832 176.25102764 85.07014562 173.70755005 63.55656433 C171.33868919 49.96582943 164.61086663 38.84025744 154.01223755 30.13371277 C147.74207037 25.9408726 141.68055366 22.94212999 134.51223755 20.69621277 C133.3520813 20.32689636 133.3520813 20.32689636 132.16848755 19.95011902 C123.28777298 17.65300349 114.60239631 16.77708639 105.44973755 16.50871277 C104.39077271 16.47004089 103.33180786 16.43136902 102.24075317 16.39152527 C95.82043865 16.1699987 89.4444324 16.13371277 83.01223755 16.13371277 Z " fill="#65E1F7" transform="translate(413.9877624511719,399.8662872314453)"/>
<path d="M0 0 C2.05624647 0.7281613 3.73237222 1.58557639 5.58642578 2.73120117 C6.61437256 3.36203613 6.61437256 3.36203613 7.66308594 4.00561523 C8.77369385 4.69929199 8.77369385 4.69929199 9.90673828 5.40698242 C10.69483887 5.89392578 11.48293945 6.38086914 12.29492188 6.88256836 C19.37856659 11.27511917 26.40677664 15.75534062 33.43139648 20.24145508 C46.98409603 28.89371038 60.63275734 37.39362536 74.31811523 45.83422852 C81.39821659 50.20134509 88.44406291 54.60468838 95.40673828 59.15698242 C102.99057232 64.1151177 110.72019647 68.81580767 118.47729492 73.49707031 C125.40977694 77.69355137 132.24005773 82.022223 138.98095703 86.52026367 C142.22849312 88.90431537 142.22849312 88.90431537 146.03173828 89.71948242 C147.05022936 90.70064292 148.04790109 91.70357673 149.03173828 92.71948242 C150.14317221 93.49961078 151.28058259 94.24371821 152.43798828 94.95385742 C153.10056641 95.3637793 153.76314453 95.77370117 154.44580078 96.19604492 C155.13416016 96.6162793 155.82251953 97.03651367 156.53173828 97.46948242 C157.87584403 98.29702989 159.21958591 99.1251686 160.56298828 99.95385742 C161.62864014 100.61019165 161.62864014 100.61019165 162.71582031 101.27978516 C165.27841595 102.87283033 167.82387327 104.49113379 170.36767578 106.11401367 C175.9394164 109.66833352 181.54591088 113.16482313 187.15673828 116.65698242 C196.82382281 122.68535419 206.43620989 128.79484444 216.02441406 134.94775391 C222.17835161 138.89615336 228.34445406 142.82356311 234.53173828 146.71948242 C244.98786251 153.30901318 255.4035695 159.96091936 265.79931641 166.64526367 C269.09606086 168.7607577 272.39976896 170.8650983 275.70361328 172.96948242 C277.81331573 174.32313888 279.9227029 175.67728687 282.03173828 177.03198242 C283.02334961 177.66015869 284.01496094 178.28833496 285.03662109 178.93554688 C285.94250977 179.52037842 286.84839844 180.10520996 287.78173828 180.70776367 C288.58095703 181.21863525 289.38017578 181.72950684 290.20361328 182.25585938 C292.03173828 183.71948242 292.03173828 183.71948242 293.03173828 186.71948242 C293.07128062 189.05248067 293.0757556 191.38656431 293.03173828 193.71948242 C289.02547883 195.05490224 286.68223771 193.67502402 282.96142578 192.14135742 C282.25662079 191.85909302 281.5518158 191.57682861 280.82565308 191.28601074 C278.5152167 190.35704798 276.21092652 189.41382576 273.90673828 188.46948242 C272.30824602 187.82167455 270.70961218 187.17421595 269.11083984 186.52709961 C256.94988178 181.58532511 244.91729636 176.3846684 232.94042969 171.01196289 C228.95525871 169.24114745 224.94698009 167.5259416 220.93896484 165.80761719 C213.09276014 162.43730976 205.32318218 158.99880817 197.72216797 155.10498047 C193.12066332 152.75070889 188.48356048 150.47744231 183.82470703 148.23901367 C183.17216949 147.92547943 182.51963196 147.61194519 181.84732056 147.28890991 C180.49295192 146.63830175 179.13857144 145.98771825 177.78417969 145.3371582 C166.19831591 139.76750555 154.71743723 134.05530216 143.38964844 127.97485352 C139.82612394 126.07760326 136.23976329 124.22491093 132.65551758 122.3671875 C123.21396369 117.47095639 113.83498906 112.47437921 104.51074219 107.35839844 C98.49268178 104.05684588 92.45474904 100.79512142 86.40356445 97.5546875 C76.05711174 92.0124084 65.78550631 86.36246476 55.58813477 80.55053711 C48.66236192 76.61281074 41.67476391 72.80247284 34.65673828 69.03198242 C11.90999358 56.80039821 11.90999358 56.80039821 3.38720703 50.88354492 C0.35460966 49.38484838 -0.74349216 49.81038734 -3.96826172 50.71948242 C-5.88010391 51.66232058 -7.75436914 52.68310855 -9.59716797 53.75463867 C-10.69988037 54.39079102 -11.80259277 55.02694336 -12.9387207 55.68237305 C-14.13607428 56.38223159 -15.3334211 57.08210171 -16.53076172 57.78198242 C-17.78430493 58.50736035 -19.03830087 59.23195641 -20.29272461 59.95581055 C-22.89768805 61.45995866 -25.50067362 62.96744141 -28.10205078 64.4777832 C-34.0237819 67.91410273 -39.9632241 71.31928365 -45.90576172 74.71948242 C-46.47790405 75.04712585 -47.05004639 75.37476929 -47.63952637 75.71234131 C-57.85677003 81.5599214 -68.14752491 87.26831145 -78.46850586 92.93041992 C-84.87719707 96.44832083 -91.25651258 100.01060889 -97.59887695 103.6472168 C-110.73109931 111.17070332 -124.14668412 118.08829038 -137.62036133 124.97290039 C-142.80696075 127.62685614 -147.95341966 130.35149808 -153.09326172 133.09448242 C-160.31803583 136.93361501 -167.65365852 140.50516516 -175.06445312 143.97094727 C-180.28906211 146.41796951 -185.45701565 148.95995478 -190.60888672 151.55541992 C-198.67509993 155.6090269 -206.82172641 159.4644196 -215.03076172 163.21948242 C-216.12854446 163.72256424 -216.12854446 163.72256424 -217.24850464 164.23580933 C-229.56229448 169.8634023 -241.99922821 175.15911385 -254.53076172 180.28198242 C-255.32612335 180.60714844 -256.12148499 180.93231445 -256.94094849 181.26733398 C-262.27378995 183.4423163 -267.61810304 185.58750668 -272.96826172 187.71948242 C-274.20633575 188.21529816 -274.20633575 188.21529816 -275.46942139 188.72113037 C-277.95504372 189.7146998 -280.44355656 190.70064249 -282.93310547 191.68432617 C-283.69538956 191.98955704 -284.45767365 192.2947879 -285.24305725 192.60926819 C-288.29084595 193.8045854 -290.6637968 194.71948242 -293.96826172 194.71948242 C-295.08844879 186.19518306 -295.08844879 186.19518306 -292.68359375 183.02709961 C-290.70834224 181.52758305 -288.69480816 180.3063942 -286.53076172 179.09448242 C-284.87700351 178.08294737 -283.22336439 177.0712176 -281.56982422 176.05932617 C-280.67038086 175.52678223 -279.7709375 174.99423828 -278.84423828 174.44555664 C-274.71172089 171.96534459 -270.67275905 169.34643911 -266.62353516 166.7331543 C-263.4043894 164.65609697 -260.1760096 162.59415671 -256.94482422 160.53588867 C-252.04305592 157.40964293 -247.15648177 154.26115052 -242.28076172 151.09448242 C-233.15818417 145.1758128 -223.97810842 139.34801213 -214.79882812 133.51782227 C-210.18691945 130.5877447 -205.57772157 127.65341019 -200.96826172 124.71948242 C-199.1388413 123.55540944 -197.30941421 122.39134696 -195.47998047 121.22729492 C-191.77368727 118.86880456 -188.06802369 116.50932906 -184.36279297 114.14916992 C-175.55065641 108.53676511 -166.73573502 102.92879585 -157.90576172 97.34448242 C-157.13022949 96.85399414 -156.35469727 96.36350586 -155.55566406 95.8581543 C-149.85293564 92.25952335 -144.11183485 88.72846798 -138.33935547 85.24291992 C-135.90380532 83.79680853 -135.90380532 83.79680853 -133.96826172 81.71948242 C-131.40485571 80.26469474 -128.79560845 78.91195618 -126.18310547 77.54760742 C-122.8271147 75.63921899 -119.66774881 73.5417654 -116.46948242 71.38354492 C-111.90989383 68.35004996 -107.24450371 65.48461474 -102.59326172 62.59448242 C-100.45632261 61.26280471 -98.31960642 59.93076923 -96.18310547 58.59838867 C-95.13106934 57.94241699 -94.0790332 57.28644531 -92.99511719 56.6105957 C-88.70672409 53.93130123 -84.42942295 51.23469665 -80.15576172 48.53198242 C-79.39215332 48.04906738 -78.62854492 47.56615234 -77.84179688 47.06860352 C-76.31533374 46.10293486 -74.78896572 45.13711582 -73.26269531 44.17114258 C-68.53752342 41.18158394 -63.80893792 38.19742626 -59.08105469 35.2121582 C-55.18431657 32.75143877 -51.28828983 30.28961159 -47.39404297 27.82495117 C-38.34869957 22.10199505 -29.28941573 16.40144435 -20.21826172 10.71948242 C-18.70002808 9.76658325 -18.70002808 9.76658325 -17.15112305 8.79443359 C-15.2622753 7.61281698 -13.37013612 6.43643888 -11.47412109 5.26635742 C-9.92571134 4.31051913 -8.3838325 3.34389356 -6.85302734 2.36010742 C-2.4805427 -0.3535281 -2.4805427 -0.3535281 0 0 Z " fill="#67E4F9" transform="translate(512.96826171875,265.280517578125)"/>
<path d="M0 0 C9.48746034 4.37248172 14.81629924 13.8048879 19 23 C21.52876723 30.02997291 22.37172195 36.56556091 22 44 C21.01 44.495 21.01 44.495 20 45 C19.84144531 43.91203125 19.68289063 42.8240625 19.51953125 41.703125 C17.26337396 27.13702771 13.37864708 15.15092279 2.625 4.625 C1.75875 3.75875 0.8925 2.8925 0 2 C0 1.34 0 0.68 0 0 Z " fill="#6EEAF9" transform="translate(568,429)"/>
<path d="M0 0 C10.91186489 0.38145783 21.81498901 0.84581376 32.6875 1.875 C33.48196533 1.94122559 34.27643066 2.00745117 35.0949707 2.07568359 C40.52920314 2.63392585 40.52920314 2.63392585 43.01953125 4.5703125 C43.34308594 5.04210937 43.66664063 5.51390625 44 6 C39.83861737 6.08159574 36.0527516 5.98248524 32 5 C32 4.34 32 3.68 32 3 C31.01 3.495 31.01 3.495 30 4 C28.48154798 4.09472912 26.95889616 4.1298841 25.4375 4.125 C24.22900391 4.12886719 24.22900391 4.12886719 22.99609375 4.1328125 C21 4 21 4 20 3 C18.58429877 2.91348389 17.164405 2.89295096 15.74609375 2.90234375 C14.46508789 2.90717773 14.46508789 2.90717773 13.15820312 2.91210938 C11.81145508 2.92467773 11.81145508 2.92467773 10.4375 2.9375 C9.53580078 2.94201172 8.63410156 2.94652344 7.70507812 2.95117188 C5.46998686 2.96299775 3.23502563 2.9794778 1 3 C0.67 2.01 0.34 1.02 0 0 Z " fill="#71EBFA" transform="translate(536,400)"/>
<path d="M0 0 C8.82051975 1.59863156 16.53743293 3.88728706 24 9 C24.33 9.66 24.66 10.32 25 11 C20.85326256 10.39018567 17.71444984 8.89674034 14 7 C12.67267648 6.64348749 11.33841672 6.31229724 10 6 C8.43156177 5.56241891 6.86893986 5.10350878 5.3125 4.625 C4.52488281 4.39039063 3.73726562 4.15578125 2.92578125 3.9140625 C2.29027344 3.61242187 1.65476562 3.31078125 1 3 C0.67 2.01 0.34 1.02 0 0 Z " fill="#6EE9F9" transform="translate(542,417)"/>
<path d="M0 0 C3 1 3 1 4.31640625 3.07421875 C8.31542338 11.46087222 10.33213457 17.6633282 10 27 C8.36409813 24.00664764 7.47451478 21.1872217 6.6875 17.875 C5.38079847 12.85699669 3.45533899 8.54450404 0.98828125 3.99609375 C0 2 0 2 0 0 Z " fill="#6FEAF8" transform="translate(637,438)"/>
<path d="M0 0 C7.36519648 0.36222278 13.66788543 2.08765779 20 6 C20.33 6.99 20.66 7.98 21 9 C16.28562282 7.48728707 11.71041415 5.73227046 7.125 3.875 C6.43664062 3.59785156 5.74828125 3.32070313 5.0390625 3.03515625 C3.35873499 2.35835767 1.67927658 1.67940197 0 1 C0 0.67 0 0.34 0 0 Z " fill="#72ECFB" transform="translate(594,409)"/>
<path d="M0 0 C4.53847198 1.34927545 8.31932246 3.19159348 12.375 5.625 C13.43460938 6.25664062 14.49421875 6.88828125 15.5859375 7.5390625 C16.38257813 8.02117187 17.17921875 8.50328125 18 9 C16.41796875 9.703125 16.41796875 9.703125 14 10 C10.80078125 8.671875 10.80078125 8.671875 7.3125 6.75 C6.15363281 6.12609375 4.99476563 5.5021875 3.80078125 4.859375 C1 3 1 3 0 0 Z " fill="#71EBFA" transform="translate(537,326)"/>
<path d="M0 0 C-3.04120692 1.77504706 -5.04674654 2.21305767 -8.546875 1.9765625 C-9.81337891 1.89921875 -9.81337891 1.89921875 -11.10546875 1.8203125 C-11.97816406 1.75585938 -12.85085938 1.69140625 -13.75 1.625 C-14.63816406 1.56828125 -15.52632812 1.5115625 -16.44140625 1.453125 C-18.62846332 1.31202454 -20.8143069 1.1606567 -23 1 C-23 0.67 -23 0.34 -23 0 C-15.54607684 -1.65642737 -7.43993062 -1.72005735 0 0 Z " fill="#71ECFA" transform="translate(540,416)"/>
<path d="M0 0 C3.63 0 7.26 0 11 0 C11 0.33 11 0.66 11 1 C9.3603125 1.4021875 9.3603125 1.4021875 7.6875 1.8125 C3.54344395 2.96919252 3.54344395 2.96919252 1 6 C0.46376905 8.68115473 0.22425837 11.26404784 0 14 C-0.33 14 -0.66 14 -1 14 C-1.02694851 12.04174127 -1.04637218 10.08337774 -1.0625 8.125 C-1.07410156 7.03445313 -1.08570313 5.94390625 -1.09765625 4.8203125 C-1 2 -1 2 0 0 Z " fill="#59BECD" transform="translate(409,663)"/>
<path d="M0 0 C0.66 0 1.32 0 2 0 C2 3.63 2 7.26 2 11 C0.68 10.67 -0.64 10.34 -2 10 C-1.34 6.7 -0.68 3.4 0 0 Z " fill="#5CDAEE" transform="translate(530,666)"/>
<path d="M0 0 C0.99 0.33 1.98 0.66 3 1 C1.68799596 2.35432675 0.35368596 3.68733482 -1 5 C-1.33 5 -1.66 5 -2 5 C-2.33 7.31 -2.66 9.62 -3 12 C-2.34 12.33 -1.68 12.66 -1 13 C-1.99 13 -2.98 13 -4 13 C-4.10824843 11.3973218 -4.18570645 9.79254252 -4.25 8.1875 C-4.29640625 7.29417969 -4.3428125 6.40085937 -4.390625 5.48046875 C-4 3 -4 3 -2.171875 1.11328125 C-1.45515625 0.74589844 -0.7384375 0.37851562 0 0 Z " fill="#57BFCE" transform="translate(223,447)"/>
<path d="M0 0 C4.61513112 1.31860889 8.09897612 3.21355437 12 6 C9 7 9 7 6.73828125 6.00390625 C5.93777344 5.52824219 5.13726563 5.05257813 4.3125 4.5625 C3.50425781 4.08941406 2.69601562 3.61632812 1.86328125 3.12890625 C1.24839844 2.75636719 0.63351562 2.38382812 0 2 C0 1.34 0 0.68 0 0 Z " fill="#71EBFA" transform="translate(521,317)"/>
<path d="M0 0 C3.95826719 0.56546674 6.759709 1.63546332 10 4 C11.3125 6.1875 11.3125 6.1875 12 8 C7.44328408 6.48109469 3.68276708 4.04597738 0 1 C0 0.67 0 0.34 0 0 Z " fill="#70EBF8" transform="translate(590,315)"/>
<path d="M0 0 C1.41623216 -0.05447047 2.83308191 -0.09300508 4.25 -0.125 C5.03890625 -0.14820313 5.8278125 -0.17140625 6.640625 -0.1953125 C9.20731941 0.0171622 10.7916067 0.71345895 13 2 C8.15507803 3.51403812 4.7408989 2.36602172 0 1 C0 0.67 0 0.34 0 0 Z " fill="#71ECFB" transform="translate(581,406)"/>
<path d="M0 0 C3.7910119 1.44950455 7.3874638 3.15172566 11 5 C7.96929372 6.28222189 6.96403086 5.98589446 3.8125 4.75 C1 3 1 3 0 0 Z " fill="#71EAFA" transform="translate(638,381)"/>
<path d="M0 0 C1.32 0.33 2.64 0.66 4 1 C2.71186658 1.83878455 1.41936744 2.67086783 0.125 3.5 C-0.59429688 3.9640625 -1.31359375 4.428125 -2.0546875 4.90625 C-4 6 -4 6 -6 6 C-5.67 5.01 -5.34 4.02 -5 3 C-3.68 3 -2.36 3 -1 3 C-0.67 2.01 -0.34 1.02 0 0 Z " fill="#63DAEC" transform="translate(613,538)"/>
<path d="M0 0 C0.33 0 0.66 0 1 0 C1 2.31 1 4.62 1 7 C0.01 7.33 -0.98 7.66 -2 8 C-2.99 7.34 -3.98 6.68 -5 6 C-4.01 5.01 -3.02 4.02 -2 3 C-2 3.66 -2 4.32 -2 5 C-1.34 5 -0.68 5 0 5 C0 3.35 0 1.7 0 0 Z " fill="#57BBCA" transform="translate(805,452)"/>
<path d="M0 0 C3.95820859 0.56545837 6.6659053 1.80902348 10 4 C9.67 4.66 9.34 5.32 9 6 C8.01 6 7.02 6 6 6 C6 5.01 6 4.02 6 3 C5.38125 2.87625 4.7625 2.7525 4.125 2.625 C2 2 2 2 0 0 Z " fill="#61D5E6" transform="translate(795,445)"/>
<path d="M0 0 C3.48539917 0.64544429 6.02819057 2.10134397 9 4 C7.1875 4.625 7.1875 4.625 5 5 C4.01 4.34 3.02 3.68 2 3 C2 2.34 2 1.68 2 1 C1.34 0.67 0.68 0.34 0 0 Z " fill="#6ADEEC" transform="translate(511,265)"/>
<path d="M0 0 C2.375 0.25 2.375 0.25 5 1 C6.3125 3.0625 6.3125 3.0625 7 5 C3.34683329 3.75023244 2.21934164 3.32901247 0 0 Z " fill="#72ECFA" transform="translate(616,418)"/>
<path d="M0 0 C-5.2734375 3.22265625 -5.2734375 3.22265625 -7 4 C-7.66 3.67 -8.32 3.34 -9 3 C-6.38220849 -0.01046024 -3.86655673 -1.93327837 0 0 Z " fill="#68DCEF" transform="translate(370,393)"/>
<path d="M0 0 C3 1 3 1 3 1 Z " fill="#65D2E1" transform="translate(556,559)"/>
<path d="M0 0 C3 1 3 1 3 1 Z " fill="#70E9F8" transform="translate(562,400)"/>
<path d="M0 0 C2 1 2 1 2 1 Z " fill="#53AFBC" transform="translate(525,679)"/>
<path d="M0 0 C2 1 2 1 2 1 Z " fill="#5CC4D3" transform="translate(476,679)"/>
<path d="M0 0 C2 1 2 1 2 1 Z " fill="#5AC0CF" transform="translate(445,679)"/>
<path d="M0 0 C2 1 2 1 2 1 Z " fill="#57B4C3" transform="translate(416,679)"/>
<path d="M0 0 C2 1 2 1 2 1 Z " fill="#6CDFED" transform="translate(553,536)"/>
<path d="" fill="#70E5F6" transform="translate(0,0)"/>
<path d="M0 0 C2 1 2 1 2 1 Z " fill="#60CDDB" transform="translate(310,423)"/>
<path d="M0 0 C2 1 2 1 2 1 Z " fill="#6EE4F5" transform="translate(547,422)"/>
<path d="M0 0 C2 1 2 1 2 1 Z " fill="#60CAD9" transform="translate(305,392)"/>
<path d="M0 0 C2 1 2 1 2 1 Z " fill="#6DE1F2" transform="translate(576,351)"/>
<path d="M0 0 C2 1 2 1 2 1 Z " fill="#6CE2F3" transform="translate(451,350)"/>
<path d="M0 0 C2 1 2 1 2 1 Z " fill="#66D5E4" transform="translate(432,312)"/>
<path d="M0 0 C2 1 2 1 2 1 Z " fill="#68D7E7" transform="translate(457,296)"/>
<path d="" fill="#212222" transform="translate(0,0)"/>
<path d="" fill="#242423" transform="translate(0,0)"/>
<path d="" fill="#232423" transform="translate(0,0)"/>
<path d="" fill="#282727" transform="translate(0,0)"/>
<path d="" fill="#212221" transform="translate(0,0)"/>
<path d="" fill="#242523" transform="translate(0,0)"/>
<path d="" fill="#1B1D1B" transform="translate(0,0)"/>
<path d="" fill="#201F1F" transform="translate(0,0)"/>
<path d="" fill="#50A1AF" transform="translate(0,0)"/>
<path d="" fill="#58B8CA" transform="translate(0,0)"/>
<path d="" fill="#59BBC7" transform="translate(0,0)"/>
<path d="" fill="#5ABECD" transform="translate(0,0)"/>
<path d="" fill="#5BBFCD" transform="translate(0,0)"/>
<path d="" fill="#5BC0D1" transform="translate(0,0)"/>
<path d="" fill="#5BBFCD" transform="translate(0,0)"/>
<path d="" fill="#5BC2D2" transform="translate(0,0)"/>
<path d="" fill="#5DC5D5" transform="translate(0,0)"/>
<path d="" fill="#5CC1D1" transform="translate(0,0)"/>
<path d="" fill="#5CC3D1" transform="translate(0,0)"/>
<path d="" fill="#5CC2D0" transform="translate(0,0)"/>
<path d="" fill="#5BC1D1" transform="translate(0,0)"/>
<path d="" fill="#5CC1D0" transform="translate(0,0)"/>
<path d="" fill="#5CC2D2" transform="translate(0,0)"/>
<path d="" fill="#5BBFCF" transform="translate(0,0)"/>
<path d="" fill="#5ABDCD" transform="translate(0,0)"/>
<path d="" fill="#5ABECD" transform="translate(0,0)"/>
<path d="" fill="#5ABACB" transform="translate(0,0)"/>
<path d="" fill="#57B7C7" transform="translate(0,0)"/>
<path d="" fill="#4EA4B2" transform="translate(0,0)"/>
<path d="" fill="#50A3B2" transform="translate(0,0)"/>
<path d="" fill="#202324" transform="translate(0,0)"/>
<path d="" fill="#5FC8D8" transform="translate(0,0)"/>
<path d="" fill="#6DDFEE" transform="translate(0,0)"/>
<path d="" fill="#6ADDEB" transform="translate(0,0)"/>
<path d="" fill="#5AC2D1" transform="translate(0,0)"/>
<path d="" fill="#6CE1EE" transform="translate(0,0)"/>
<path d="" fill="#61CFDF" transform="translate(0,0)"/>
<path d="" fill="#70E6F6" transform="translate(0,0)"/>
<path d="" fill="#509FAD" transform="translate(0,0)"/>
<path d="" fill="#51A3AF" transform="translate(0,0)"/>
<path d="" fill="#4B97A4" transform="translate(0,0)"/>
<path d="" fill="#4F9DA8" transform="translate(0,0)"/>
<path d="" fill="#5CC2D0" transform="translate(0,0)"/>
<path d="" fill="#6EE0EF" transform="translate(0,0)"/>
<path d="" fill="#59BCCB" transform="translate(0,0)"/>
<path d="" fill="#5ABFCE" transform="translate(0,0)"/>
<path d="" fill="#6EE5F5" transform="translate(0,0)"/>
<path d="" fill="#5BC0CF" transform="translate(0,0)"/>
<path d="" fill="#58B8C7" transform="translate(0,0)"/>
<path d="" fill="#64CEDD" transform="translate(0,0)"/>
<path d="" fill="#72E6F7" transform="translate(0,0)"/>
<path d="" fill="#5FC8D6" transform="translate(0,0)"/>
<path d="" fill="#67D2E3" transform="translate(0,0)"/>
<path d="" fill="#68D2E4" transform="translate(0,0)"/>
<path d="" fill="#6BE2F0" transform="translate(0,0)"/>
<path d="" fill="#6CE3F3" transform="translate(0,0)"/>
<path d="" fill="#68D8E8" transform="translate(0,0)"/>
<path d="" fill="#74E7F8" transform="translate(0,0)"/>
<path d="" fill="#5ABFCE" transform="translate(0,0)"/>
<path d="" fill="#66DAEB" transform="translate(0,0)"/>
<path d="" fill="#6ADBEC" transform="translate(0,0)"/>
<path d="" fill="#6ADCEC" transform="translate(0,0)"/>
<path d="" fill="#60C5D3" transform="translate(0,0)"/>
<path d="" fill="#69DCEE" transform="translate(0,0)"/>
<path d="" fill="#6EE2EF" transform="translate(0,0)"/>
<path d="" fill="#61CCDB" transform="translate(0,0)"/>
<path d="" fill="#61CCDB" transform="translate(0,0)"/>
<path d="" fill="#6FE1F2" transform="translate(0,0)"/>
<path d="" fill="#6FE1F2" transform="translate(0,0)"/>
<path d="" fill="#69DBEB" transform="translate(0,0)"/>
<path d="" fill="#70E1F2" transform="translate(0,0)"/>
<path d="" fill="#5FCADB" transform="translate(0,0)"/>
<path d="" fill="#61C9D8" transform="translate(0,0)"/>
<path d="" fill="#72E4F3" transform="translate(0,0)"/>
<path d="" fill="#65D0DF" transform="translate(0,0)"/>
<path d="" fill="#65CFDF" transform="translate(0,0)"/>
<path d="" fill="#6BE3F1" transform="translate(0,0)"/>
<path d="" fill="#6DE4F5" transform="translate(0,0)"/>
<path d="" fill="#68D4E4" transform="translate(0,0)"/>
<path d="" fill="#63D5E5" transform="translate(0,0)"/>
<path d="" fill="#65CEDF" transform="translate(0,0)"/>
<path d="" fill="#6CE1F3" transform="translate(0,0)"/>
<path d="" fill="#1F2221" transform="translate(0,0)"/>
<path d="" fill="#203133" transform="translate(0,0)"/>
<path d="" fill="#71E6F4" transform="translate(0,0)"/>
<path d="" fill="#6FE2F7" transform="translate(0,0)"/>
<path d="" fill="#6FE0F3" transform="translate(0,0)"/>
<path d="" fill="#71E3F4" transform="translate(0,0)"/>
<path d="" fill="#72E3F4" transform="translate(0,0)"/>
<path d="" fill="#66D5E5" transform="translate(0,0)"/>
<path d="" fill="#6EE4F4" transform="translate(0,0)"/>
<path d="" fill="#6EE3F2" transform="translate(0,0)"/>
<path d="" fill="#71E4F4" transform="translate(0,0)"/>
<path d="" fill="#70E3F5" transform="translate(0,0)"/>
<path d="" fill="#72E4F4" transform="translate(0,0)"/>
<path d="" fill="#70E3F1" transform="translate(0,0)"/>
<path d="" fill="#6CE4F5" transform="translate(0,0)"/>
<path d="" fill="#6EE3F4" transform="translate(0,0)"/>
<path d="" fill="#6AD6E4" transform="translate(0,0)"/>
<path d="" fill="#69D6E5" transform="translate(0,0)"/>
<path d="" fill="#66D6E6" transform="translate(0,0)"/>
<path d="" fill="#6FE6F6" transform="translate(0,0)"/>
<path d="" fill="#69D7E9" transform="translate(0,0)"/>
<path d="" fill="#6AD6E5" transform="translate(0,0)"/>
<path d="" fill="#67D5E4" transform="translate(0,0)"/>
<path d="" fill="#68D4E5" transform="translate(0,0)"/>
<path d="" fill="#68D5E4" transform="translate(0,0)"/>
<path d="" fill="#69D6E7" transform="translate(0,0)"/>
<path d="" fill="#6AD4E6" transform="translate(0,0)"/>
<path d="" fill="#66D5E7" transform="translate(0,0)"/>
<path d="" fill="#67D4E3" transform="translate(0,0)"/>
<path d="" fill="#67D2E1" transform="translate(0,0)"/>
<path d="" fill="#65CFE0" transform="translate(0,0)"/>
<path d="" fill="#65CAD9" transform="translate(0,0)"/>
<path d="" fill="#60C6D2" transform="translate(0,0)"/>
<path d="" fill="#61C4D4" transform="translate(0,0)"/>
<path d="" fill="#1C1F1F" transform="translate(0,0)"/>
<path d="" fill="#1A1D1E" transform="translate(0,0)"/>
<path d="" fill="#222421" transform="translate(0,0)"/>
<path d="" fill="#272828" transform="translate(0,0)"/>
<path d="" fill="#232422" transform="translate(0,0)"/>
<path d="" fill="#232322" transform="translate(0,0)"/>
<path d="" fill="#252525" transform="translate(0,0)"/>
</svg>
